<?xml version="1.0" encoding="UTF-8" standalone="no"?>
<!-- Created with Inkscape (http://www.inkscape.org/) -->

<svg
   xmlns:dc="http://purl.org/dc/elements/1.1/"
   xmlns:cc="http://creativecommons.org/ns#"
   xmlns:rdf="http://www.w3.org/1999/02/22-rdf-syntax-ns#"
   xmlns:svg="http://www.w3.org/2000/svg"
   xmlns="http://www.w3.org/2000/svg"
   xmlns:sodipodi="http://sodipodi.sourceforge.net/DTD/sodipodi-0.dtd"
   xmlns:inkscape="http://www.inkscape.org/namespaces/inkscape"
   width="128mm"
   height="128mm"
   viewBox="0 0 128 128"
   version="1.1"
   id="svg4916"
   inkscape:version="0.92.3 (2405546, 2018-03-11)"
   sodipodi:docname="ln-logo-plain.svg">
  <sodipodi:namedview
     id="base"
     pagecolor="#ffffff"
     bordercolor="#666666"
     borderopacity="1.0"
     inkscape:pageopacity="0.0"
     inkscape:pageshadow="2"
     inkscape:zoom="1.4"
     inkscape:cx="157.67965"
     inkscape:cy="356.4717"
     inkscape:document-units="mm"
     inkscape:current-layer="layer1"
     showgrid="false"
     inkscape:window-width="3840"
     inkscape:window-height="2092"
     inkscape:window-x="0"
     inkscape:window-y="32"
     inkscape:window-maximized="1" />
  <defs
     id="defs4910" />
  <metadata
     id="metadata4913">
    <rdf:RDF>
      <cc:Work
         rdf:about="">
        <dc:format>image/svg+xml</dc:format>
        <dc:type
           rdf:resource="http://purl.org/dc/dcmitype/StillImage" />
        <dc:title />
      </cc:Work>
    </rdf:RDF>
  </metadata>
  <g
     transform="translate(-5.0364127,34.627325)"
     id="layer1"
     inkscape:groupmode="layer"
     inkscape:label="Layer 1">
    <path
       style="font-style:normal;font-weight:normal;font-size:medium;line-height:1.25;font-family:sans-serif;letter-spacing:0px;word-spacing:0px;fill:#000000;fill-opacity:1;stroke:none;stroke-width:0.0863914"
       d="m 5.0364127,-34.627325 c 0,42.6666667 0,85.333333 0,128 29.1743423,0 58.3486853,0 87.5230273,0 -5.201163,-9.61018 -10.402573,-19.220226 -15.603735,-28.830407 -15.015841,0 -30.031681,0 -45.047522,0 0,-33.056531 0,-66.113062 0,-99.169593 -8.957257,0 -17.914514,0 -26.8717703,0 z m 38.0526513,0.01565 c 0,28.315015 0,56.63003 0,84.945045 9.078561,0 18.157123,0 27.235684,0 0,-8.41377 0,-16.827541 0,-25.241311 12.318974,22.756978 24.637948,45.513955 36.956922,68.270933 8.58491,0 17.16983,0 25.75474,0 0,-42.658225 0,-85.3164507 0,-127.974676 -8.58491,0.08292 -17.16983,0.165837 -25.75474,0.248755 0,23.840634 0,47.681267 0,71.521901 C 94.962696,13.237406 82.643722,-10.68416 70.324748,-34.605726 c -9.078561,-0.002 -18.157123,-0.004 -27.235684,-0.0059 z"
       id="path3740-3-0-0-4-3-7"
       inkscape:connector-curvature="0" />
  </g>
</svg>
