<?xml version="1.0" encoding="UTF-8"?>
<svg width="128mm" height="128mm" version="1.1" viewBox="0 0 128 128" xmlns="http://www.w3.org/2000/svg">
 <path d="m49.344 3.0041e-6a11.289 11.288 0 0 0-11.292 11.288v62.386a11.289 11.288 0 0 0 11.289 11.289h4.6576a11.289 11.288 0 0 0 11.289-11.289v-13.951l33.755 62.352a11.289 11.288 0 0 0 9.9276 5.9146h7.7401a11.289 11.288 0 0 0 11.289-11.288v-105.4a11.289 11.288 0 0 0-11.279-11.288l-3.1766-0.0030954a11.289 11.288 0 0 0-11.299 11.288v60.492l-33.806-65.666a11.289 11.288 0 0 0-10.035-6.1218zm-38.056 0.0072492c-6.2347-1.323e-5 -11.289 5.0537-11.289 11.288v105.42c0 6.2343 5.054 11.289 11.289 11.289h57.289a11.289 11.288 0 0 0 9.9281-16.662l-3.3843-6.252a11.289 11.288 0 0 0-9.9281-5.9151h-27.032c-6.2347 0-11.289-5.0543-11.289-11.289v-76.587c0-6.2343-5.054-11.288-11.289-11.288z"/>
</svg>
