<?xml version="1.0" encoding="UTF-8" standalone="no"?>
<!-- Created with Inkscape (http://www.inkscape.org/) -->

<svg
   xmlns:dc="http://purl.org/dc/elements/1.1/"
   xmlns:cc="http://creativecommons.org/ns#"
   xmlns:rdf="http://www.w3.org/1999/02/22-rdf-syntax-ns#"
   xmlns:svg="http://www.w3.org/2000/svg"
   xmlns="http://www.w3.org/2000/svg"
   xmlns:sodipodi="http://sodipodi.sourceforge.net/DTD/sodipodi-0.dtd"
   xmlns:inkscape="http://www.inkscape.org/namespaces/inkscape"
   width="210mm"
   height="297mm"
   viewBox="0 0 210 297"
   version="1.1"
   id="svg8"
   inkscape:version="0.92.3 (2405546, 2018-03-11)"
   sodipodi:docname="logo-options.svg">
  <sodipodi:namedview
     id="base"
     pagecolor="#ffffff"
     bordercolor="#666666"
     borderopacity="1.0"
     inkscape:pageopacity="0.0"
     inkscape:pageshadow="2"
     inkscape:zoom="4"
     inkscape:cx="549.64461"
     inkscape:cy="930.08817"
     inkscape:document-units="mm"
     inkscape:current-layer="layer1"
     showgrid="false"
     showguides="true"
     inkscape:guide-bbox="true"
     inkscape:window-width="3840"
     inkscape:window-height="2092"
     inkscape:window-x="0"
     inkscape:window-y="32"
     inkscape:window-maximized="1">
    <sodipodi:guide
       position="39.622903,184.51177"
       orientation="0,1"
       id="guide4535"
       inkscape:locked="false" />
    <sodipodi:guide
       position="-0.1984375,297.39168"
       orientation="0,1"
       id="guide4633"
       inkscape:locked="false" />
    <sodipodi:guide
       position="96.562565,201.11007"
       orientation="1,0"
       id="guide4724"
       inkscape:locked="false" />
    <sodipodi:guide
       position="90.048113,196.16248"
       orientation="0,1"
       id="guide4726"
       inkscape:locked="false" />
    <sodipodi:guide
       position="137.13599,212.81337"
       orientation="0,1"
       id="guide4774"
       inkscape:locked="false" />
    <sodipodi:guide
       position="155.39243,217.35709"
       orientation="0,1"
       id="guide4798"
       inkscape:locked="false" />
    <sodipodi:guide
       position="165.46896,218.59548"
       orientation="1,0"
       id="guide4803"
       inkscape:locked="false" />
  </sodipodi:namedview>
  <defs
     id="defs2" />
  <metadata
     id="metadata5">
    <rdf:RDF>
      <cc:Work
         rdf:about="">
        <dc:format>image/svg+xml</dc:format>
        <dc:type
           rdf:resource="http://purl.org/dc/dcmitype/StillImage" />
        <dc:title></dc:title>
      </cc:Work>
    </rdf:RDF>
  </metadata>
  <g
     id="layer1"
     inkscape:groupmode="layer"
     inkscape:label="Layer 1">
    <g
       id="flowRoot3732"
       style="font-style:normal;font-weight:normal;font-size:40px;line-height:1.25;font-family:sans-serif;letter-spacing:0px;word-spacing:0px;fill:#000000;fill-opacity:1;stroke:none"
       transform="matrix(0.87501785,0,0,0.69199087,-376.52687,-131.96456)"
       aria-label="LN"
       inkscape:export-xdpi="96"
       inkscape:export-ydpi="96">
      <path
         sodipodi:nodetypes="ccccccc"
         inkscape:connector-curvature="0"
         id="path3740"
         d="m 440.17578,244.64258 h 3.94531 v 23.50208 h 14.19922 v 5.65807 h -18.14453 z" />
      <path
         sodipodi:nodetypes="ccccccccccc"
         style="stroke-width:0.85352987"
         inkscape:connector-curvature="0"
         id="path3742"
         d="m 440.17578,244.64258 h 5.49387 l 7.45535,13.17937 v -13.13473 l 5.19531,-0.0446 V 268.1447 H 453.125 l -7.45535,-12.53803 v 12.53799 h -5.49387 z" />
    </g>
    <path
       d="m 28.604768,54.06791 c 5.29226,5e-5 10.58452,2e-5 15.87678,2e-5 0,1.30511 0,2.61023 0,3.91534 -5.29226,0 -10.58452,0 -15.87678,0 0,-1.30513 0,-2.61024 0,-3.91536 z"
       id="path3740-7"
       inkscape:connector-curvature="0"
       style="font-style:normal;font-weight:normal;font-size:medium;line-height:1.25;font-family:sans-serif;letter-spacing:0px;word-spacing:0px;fill:#000000;fill-opacity:1;stroke:none;stroke-width:0.77814162"
       inkscape:export-xdpi="96"
       inkscape:export-ydpi="96" />
    <path
       d="m 28.604768,37.32587 h 4.80723 l 6.52359,9.120005 V 37.35676 l 4.54598,-0.03086 v 16.263223 h -4.54598 l -6.52359,-8.676203 v 8.676177 h -4.80723 z"
       id="path3742-5"
       inkscape:connector-curvature="0"
       style="font-style:normal;font-weight:normal;font-size:medium;line-height:1.25;font-family:sans-serif;letter-spacing:0px;word-spacing:0px;fill:#000000;fill-opacity:1;stroke:none;stroke-width:0.66416705"
       sodipodi:nodetypes="ccccccccccc"
       inkscape:export-xdpi="96"
       inkscape:export-ydpi="96" />
    <path
       d="m 47.871098,54.15528 c 5.29226,6e-5 10.58452,2e-5 15.87678,3e-5 0,1.30511 0,2.61022 0,3.91533 -5.29226,0 -10.58452,0 -15.87678,0 0,-1.30512 0,-2.61024 0,-3.91536 z"
       id="path3740-7-4"
       inkscape:connector-curvature="0"
       style="font-style:normal;font-weight:normal;font-size:medium;line-height:1.25;font-family:sans-serif;letter-spacing:0px;word-spacing:0px;fill:#000000;fill-opacity:1;stroke:none;stroke-width:0.77814162"
       inkscape:export-xdpi="96"
       inkscape:export-ydpi="96" />
    <path
       inkscape:connector-curvature="0"
       id="path3742-5-4"
       d="m 47.870518,37.326448 v 16.263141 h 4.80745 v -3.507258 h -0.004 V 37.326448 Z m 15.87796,0 -4.54661,0.02973 v 9.089141 l -5.94138,-8.305246 v 7.547032 l 5.94138,7.90248 h 4.54661 z"
       style="font-style:normal;font-weight:normal;font-size:medium;line-height:1.25;font-family:sans-serif;letter-spacing:0px;word-spacing:0px;fill:#000000;fill-opacity:1;stroke:none;stroke-width:0.66416705"
       inkscape:export-xdpi="96"
       inkscape:export-ydpi="96" />
    <path
       d="m 66.777268,54.28416 c 5.29226,6e-5 10.58452,2e-5 15.87678,3e-5 0,1.47501 0,2.95004 0,4.42505 -5.29226,0 -10.58452,0 -15.87678,0 0,-1.47503 0,-2.95005 0,-4.42508 z"
       id="path3740-7-7"
       inkscape:connector-curvature="0"
       style="font-style:normal;font-weight:normal;font-size:medium;line-height:1.25;font-family:sans-serif;letter-spacing:0px;word-spacing:0px;fill:#000000;fill-opacity:1;stroke:none;stroke-width:0.82724398"
       inkscape:export-xdpi="96"
       inkscape:export-ydpi="96" />
    <path
       sodipodi:nodetypes="ccccccccccccc"
       inkscape:connector-curvature="0"
       id="path3742-5-2"
       d="m 66.777288,37.326448 v 16.263141 h 4.42437 V 37.326448 Z m 5.1349,0 v 7.586219 l 6.41905,8.676922 h 4.32264 V 37.326448 l -4.32264,0.02976 v 9.089141 z"
       style="font-style:normal;font-weight:normal;font-size:medium;line-height:1.25;font-family:sans-serif;letter-spacing:0px;word-spacing:0px;fill:#000000;fill-opacity:1;stroke:none;stroke-width:0.66416705"
       inkscape:export-xdpi="96"
       inkscape:export-ydpi="96" />
    <path
       d="M 8.6347882,7.9426245 H 12.087008 V 24.205851 h 12.42456 v 3.915333 H 8.6347882 Z"
       id="path3740-3"
       inkscape:connector-curvature="0"
       sodipodi:nodetypes="ccccccc"
       style="font-style:normal;font-weight:normal;font-size:medium;line-height:1.25;font-family:sans-serif;letter-spacing:0px;word-spacing:0px;fill:#000000;fill-opacity:1;stroke:none;stroke-width:0.77814162"
       inkscape:export-xdpi="96"
       inkscape:export-ydpi="96" />
    <path
       d="m 8.6347882,7.9426245 h 4.8072298 l 6.52357,11.3156035 V 7.9809505 l 4.54598,-0.03829 V 28.121183 h -4.54598 l -6.52357,-10.76496 V 28.121146 H 8.6347882 Z"
       id="path3742-7"
       inkscape:connector-curvature="0"
       style="font-style:normal;font-weight:normal;font-size:medium;line-height:1.25;font-family:sans-serif;letter-spacing:0px;word-spacing:0px;fill:#000000;fill-opacity:1;stroke:none;stroke-width:0.73980743"
       sodipodi:nodetypes="ccccccccccc"
       inkscape:export-xdpi="96"
       inkscape:export-ydpi="96" />
    <path
       inkscape:connector-curvature="0"
       id="path3740-3-7"
       d="M 28.604258,7.8803465 V 28.058911 h 10.16226 l -2.3679,-3.915429 h -4.34117 V 7.8803465 Z m 8.98506,16.2631355 2.36926,3.915429 h 4.52362 v -3.915429 z"
       style="font-style:normal;font-weight:normal;font-size:medium;line-height:1.25;font-family:sans-serif;letter-spacing:0px;word-spacing:0px;fill:#000000;fill-opacity:1;stroke:none;stroke-width:0.77814162"
       inkscape:export-xdpi="96"
       inkscape:export-ydpi="96" />
    <path
       d="m 28.604768,7.8801135 h 4.80723 l 6.52357,11.3156045 V 7.9184395 l 4.54598,-0.03829 V 28.058672 h -4.54598 l -6.52357,-10.76496 v 10.764923 h -4.80723 z"
       id="path3742-7-6"
       inkscape:connector-curvature="0"
       style="font-style:normal;font-weight:normal;font-size:medium;line-height:1.25;font-family:sans-serif;letter-spacing:0px;word-spacing:0px;fill:#000000;fill-opacity:1;stroke:none;stroke-width:0.73980749"
       sodipodi:nodetypes="ccccccccccc"
       inkscape:export-xdpi="96"
       inkscape:export-ydpi="96" />
    <path
       inkscape:connector-curvature="0"
       id="path3740-3-7-3"
       d="M 47.866468,7.7708735 V 27.949432 h 4.80745 v -3.915423 h -1.35425 V 7.7708735 Z m 5.83597,16.2631355 v 3.915423 h 4.3263 l -2.36791,-3.915423 z m 3.1491,0 2.36926,3.915423 h 4.52362 v -3.915423 z"
       style="font-style:normal;font-weight:normal;font-size:medium;line-height:1.25;font-family:sans-serif;letter-spacing:0px;word-spacing:0px;fill:#000000;fill-opacity:1;stroke:none;stroke-width:0.77814162"
       inkscape:export-xdpi="96"
       inkscape:export-ydpi="96" />
    <path
       d="m 47.866678,7.7707745 h 4.80724 l 6.52356,11.3156035 V 7.8091005 l 4.54598,-0.03829 V 27.949333 h -4.54598 l -6.52356,-10.76496 v 10.764923 h -4.80724 z"
       id="path3742-7-6-9"
       inkscape:connector-curvature="0"
       style="font-style:normal;font-weight:normal;font-size:medium;line-height:1.25;font-family:sans-serif;letter-spacing:0px;word-spacing:0px;fill:#000000;fill-opacity:1;stroke:none;stroke-width:0.73980761"
       sodipodi:nodetypes="ccccccccccc"
       inkscape:export-xdpi="96"
       inkscape:export-ydpi="96" />
    <path
       d="m 65.603378,7.7881615 h 3.45222 V 23.534217 h 12.42455 v 4.432504 h -15.87677 z"
       id="path3740-3-1"
       inkscape:connector-curvature="0"
       sodipodi:nodetypes="ccccccc"
       style="font-style:normal;font-weight:normal;font-size:medium;line-height:1.25;font-family:sans-serif;letter-spacing:0px;word-spacing:0px;fill:#000000;fill-opacity:1;stroke:none;stroke-width:0.77814162"
       inkscape:export-xdpi="96"
       inkscape:export-ydpi="96" />
    <path
       inkscape:connector-curvature="0"
       id="path3742-7-0"
       d="M 65.602788,7.7884435 V 27.967001 h 4.80745 V 17.201948 l 3.23965,5.346716 h 7.83085 V 7.7884435 l -4.5466,0.03784 V 19.103576 l -6.5239,-11.3151305 z m 8.64448,15.7454915 2.68687,4.433066 h 4.5466 v -4.433066 z"
       style="font-style:normal;font-weight:normal;font-size:medium;line-height:1.25;font-family:sans-serif;letter-spacing:0px;word-spacing:0px;fill:#000000;fill-opacity:1;stroke:none;stroke-width:0.73980749"
       inkscape:export-xdpi="96"
       inkscape:export-ydpi="96" />
    <path
       style="font-style:normal;font-weight:normal;font-size:medium;line-height:1.25;font-family:sans-serif;letter-spacing:0px;word-spacing:0px;fill:#000000;fill-opacity:1;stroke:none;stroke-width:0.77814162"
       d="m 85.194946,7.510729 h 3.452217 v 16.263225 h 12.424577 v 3.915333 H 85.194946 Z"
       id="path3740-1"
       inkscape:connector-curvature="0"
       sodipodi:nodetypes="ccccccc" />
    <path
       style="font-style:normal;font-weight:normal;font-size:medium;line-height:1.25;font-family:sans-serif;letter-spacing:0px;word-spacing:0px;fill:#000000;fill-opacity:1;stroke:none;stroke-width:0.66416711"
       d="M 85.194798,7.5106525 V 23.773743 h 4.80746 v -8.675957 l 5.648749,7.512719 h 5.420863 V 7.5106525 l -4.545979,0.031007 V 16.63051 L 90.002258,7.5106525 Z"
       id="path3742-1"
       inkscape:connector-curvature="0" />
    <path
       style="font-style:normal;font-weight:normal;font-size:medium;line-height:1.25;font-family:sans-serif;letter-spacing:0px;word-spacing:0px;fill:#000000;fill-opacity:1;stroke:none;stroke-width:2.94100761"
       d="M 89.744141 348.88672 L 89.744141 425.15234 L 89.746094 425.15234 L 107.91602 425.15234 L 128.15234 425.15234 L 119.20312 410.35352 L 107.91602 410.35352 L 107.91602 384.46484 L 132.57227 425.15234 L 132.6582 425.15234 L 149.75391 425.15234 L 149.75586 425.15234 L 149.75586 410.35352 L 149.75391 410.35352 L 149.75391 348.88672 L 132.57227 349.03125 L 132.57227 391.6543 L 107.91602 348.88672 L 102.79492 348.88672 L 89.746094 348.88672 L 89.744141 348.88672 z "
       transform="scale(0.26458333)"
       id="path3740-3-7-8" />
    <path
       style="font-style:normal;font-weight:normal;font-size:medium;line-height:1.25;font-family:sans-serif;letter-spacing:0px;word-spacing:0px;fill:#000000;fill-opacity:1;stroke:none;stroke-width:0.77814162"
       d="m 42.341019,92.309602 c 3.53e-4,6.72603 -7.05e-4,13.453468 5.29e-4,20.178618 h 9.715169 c -0.789272,-1.30518 -1.578543,-2.61035 -2.367815,-3.91553 h -2.539894 v -6.84971 c 2.174544,3.58841 4.349089,7.17683 6.523633,10.76524 h 5.026056 c -6.89e-4,-6.72569 -5.46e-4,-13.452218 -5.29e-4,-20.178618 -1.515326,0.01273 -3.510209,0.02547 -5.025535,0.0382 V 103.62515 L 47.149,92.309602 Z"
       id="path3740-3-7-8-7"
       inkscape:connector-curvature="0"
       sodipodi:nodetypes="ccccccccccccc" />
    <path
       d="m 117.66827,64.008062 4.74206,0 v 15.634842 l 11.13472,0 v 4.543718 h -15.87678 z"
       id="path3740-3-0"
       inkscape:connector-curvature="0"
       sodipodi:nodetypes="ccccccc"
       style="font-style:normal;font-weight:normal;font-size:medium;line-height:1.25;font-family:sans-serif;letter-spacing:0px;word-spacing:0px;fill:#000000;fill-opacity:1;stroke:none;stroke-width:0.77814162"
       inkscape:export-xdpi="96"
       inkscape:export-ydpi="96" />
    <path
       d="m 128.73782,64.0081 h 4.80723 l 6.52357,11.315604 V 64.046426 l 4.54598,-0.03829 v 20.178523 h -4.54598 l -6.52357,-10.76496 v 10.764923 h -4.80723 z"
       id="path3742-7-2"
       inkscape:connector-curvature="0"
       style="font-style:normal;font-weight:normal;font-size:medium;line-height:1.25;font-family:sans-serif;letter-spacing:0px;word-spacing:0px;fill:#000000;fill-opacity:1;stroke:none;stroke-width:0.73980743"
       sodipodi:nodetypes="ccccccccccc"
       inkscape:export-xdpi="96"
       inkscape:export-ydpi="96" />
    <path
       d="m 150.65037,64.008062 h 4.74206 v 15.634842 l 10.07653,0 v 4.543718 l -14.81859,0 z"
       id="path3740-3-0-0"
       inkscape:connector-curvature="0"
       sodipodi:nodetypes="ccccccc"
       style="font-style:normal;font-weight:normal;font-size:medium;line-height:1.25;font-family:sans-serif;letter-spacing:0px;word-spacing:0px;fill:#000000;fill-opacity:1;stroke:none;stroke-width:0.77814162"
       inkscape:export-xdpi="96"
       inkscape:export-ydpi="96" />
    <path
       style="font-style:normal;font-weight:normal;font-size:medium;line-height:1.25;font-family:sans-serif;letter-spacing:0px;word-spacing:0px;fill:#000000;fill-opacity:1;stroke:none;stroke-width:0.73980743"
       d="m 160.66151,64.007978 v 14.396537 h 4.80745 v -4.982641 l 6.52364,10.764718 h 4.54597 V 64.007978 l -4.54597,0.03824 v 11.277349 l -6.52364,-11.315589 z m 0,15.634705 v 4.543909 h 4.80745 v -4.543909 z"
       id="path3742-7-2-7"
       inkscape:connector-curvature="0" />
    <path
       d="m 201.26722,58.178381 h 0.15642 v 0.515738 h 0.33239 v 0.149882 h -0.48881 z"
       id="path3740-3-0-0-4"
       inkscape:connector-curvature="0"
       sodipodi:nodetypes="ccccccc"
       style="font-style:normal;font-weight:normal;font-size:medium;line-height:1.25;font-family:sans-serif;letter-spacing:0px;word-spacing:0px;fill:#000000;fill-opacity:1;stroke:none;stroke-width:0.02566818"
       inkscape:export-xdpi="96"
       inkscape:export-ydpi="96" />
    <path
       style="font-style:normal;font-weight:normal;font-size:medium;line-height:1.25;font-family:sans-serif;letter-spacing:0px;word-spacing:0px;fill:#000000;fill-opacity:1;stroke:none;stroke-width:0.02440367"
       d="m 201.48875,58.178385 v 0.441818 h 0.15858 v -0.131287 l 0.21519,0.355091 h 0.14996 v -0.665622 l -0.14996,0.0013 v 0.372001 l -0.21519,-0.373262 z m 0,0.515734 v 0.149888 h 0.15858 v -0.149888 z"
       id="path3742-7-2-7-7"
       inkscape:connector-curvature="0"
       sodipodi:nodetypes="cccccccccccccccc" />
    <path
       style="font-style:normal;font-weight:normal;font-size:medium;line-height:1.25;font-family:sans-serif;letter-spacing:0px;word-spacing:0px;fill:#000000;fill-opacity:1;stroke:none;stroke-width:0.3079128"
       d="m 756.55469,209.2168 v 7.98632 h 6.11328 l -1.08985,-1.79882 h -3.14648 v -6.1875 z"
       id="path3740-3-0-0-4-3"
       transform="scale(0.26458333)"
       inkscape:connector-curvature="0"
       sodipodi:nodetypes="ccccccc"
       inkscape:export-xdpi="96"
       inkscape:export-ydpi="96" />
    <path
       style="font-style:normal;font-weight:normal;font-size:medium;line-height:1.25;font-family:sans-serif;letter-spacing:0px;word-spacing:0px;fill:#000000;fill-opacity:1;stroke:none;stroke-width:0.07745516"
       d="m 200.875,55.355537 v 1.402293 h 0.50332 v -0.416694 l 0.68299,1.127028 h 0.47596 v -2.112627 l -0.47596,0.0041 v 1.180699 l -0.68299,-1.184701 z m 0,1.636896 v 0.475731 h 0.50332 v -0.475731 z"
       id="path3742-7-2-7-7-0"
       inkscape:connector-curvature="0"
       sodipodi:nodetypes="cccccccccccccccc"
       inkscape:export-xdpi="96"
       inkscape:export-ydpi="96" />
    <path
       inkscape:connector-curvature="0"
       style="font-style:normal;font-weight:normal;font-size:medium;line-height:1.25;font-family:sans-serif;letter-spacing:0px;word-spacing:0px;fill:#000000;fill-opacity:1;stroke:none;stroke-width:0.00460287"
       d="m 202.19574,58.188848 v 0.119384 h 0.0876 v -0.0062 l -0.0126,-0.02067 h -0.047 v -0.09249 z"
       id="path3740-3-0-0-4-3-1" />
    <path
       style="font-style:normal;font-weight:normal;font-size:medium;line-height:1.25;font-family:sans-serif;letter-spacing:0px;word-spacing:0px;fill:#000000;fill-opacity:1;stroke:none;stroke-width:0.00437611"
       d="m 202.23547,58.188862 v 0.07923 h 0.0284 v -0.02354 l 0.0386,0.06368 h 0.0269 v -0.119361 l -0.0269,2.32e-4 v 0.06671 l -0.0386,-0.06693 z m 0,0.09248 v 0.02688 h 0.0284 v -0.02688 z"
       id="path3742-7-2-7-7-0-6"
       inkscape:connector-curvature="0"
       sodipodi:nodetypes="cccccccccccccccc" />
    <path
       style="font-style:normal;font-weight:normal;font-size:medium;line-height:1.25;font-family:sans-serif;letter-spacing:0px;word-spacing:0px;fill:#000000;fill-opacity:1;stroke:none;stroke-width:1.00330973"
       d="m 125.81725,26.729935 v 26.022794 h 19.91962 l -3.55124,-5.861316 H 131.93315 V 26.729935 Z"
       id="path3740-3-0-0-4-3-7"
       inkscape:connector-curvature="0"
       sodipodi:nodetypes="ccccccc"
       inkscape:export-xdpi="96"
       inkscape:export-ydpi="96" />
    <path
       style="font-style:normal;font-weight:normal;font-size:medium;line-height:1.25;font-family:sans-serif;letter-spacing:0px;word-spacing:0px;fill:#000000;fill-opacity:1;stroke:none;stroke-width:0.95388305"
       d="m 134.47786,26.733125 v 17.269649 h 6.19853 v -5.131709 l 8.41122,13.879681 h 5.86159 V 26.733125 l -5.86159,0.05049 V 41.32427 l -8.41122,-14.58994 z m 0,20.158854 v 5.858767 h 6.19853 v -5.858767 z"
       id="path3742-7-2-7-7-0-8"
       inkscape:connector-curvature="0"
       sodipodi:nodetypes="cccccccccccccccc"
       inkscape:export-xdpi="96"
       inkscape:export-ydpi="96" />
  </g>
</svg>
